<svg version="1.2" xmlns="http://www.w3.org/2000/svg" viewBox="0 0 1000 500" width="2160" height="1080">
	<title>1781-ai</title>
	<defs>
		<clipPath clipPathUnits="userSpaceOnUse" id="cp1">
			<path d="m1000 500h-1000v-500h1000z"/>
		</clipPath>
		<linearGradient id="g1" x2="1" gradientUnits="userSpaceOnUse" gradientTransform="matrix(0,-350.477,1036.942,0,442.153,327.255)">
			<stop offset="0" stop-color="#f2ff65"/>
			<stop offset=".39" stop-color="#00c567"/>
			<stop offset="1" stop-color="#006d66"/>
		</linearGradient>
	</defs>
	<style>
		.s0 { fill: url(#g1) } 
		.s1 { fill: #27593a } 
		.s2 { fill: #55bb80 } 
		.s3 { fill: #59c56d } 
		.s4 { fill: #47b67b } 
	</style>
	<g id="_Artboards_">
	</g>
	<g id="layer 1">
		<g id="&lt;Clip Group&gt;" clip-path="url(#cp1)">
			<path id="&lt;Path&gt;" class="s0" d="m1006.4 334.6h-1012.8v-342.3h1012.8z"/>
			<g id="&lt;Group&gt;" style="mix-blend-mode: screen">
				<g id="&lt;Group&gt;">
					<path id="&lt;Path&gt;" class="s1" d="m643.7 171.6c0.8 2.2 4.1 1 3.8-1.2-0.7-2.5-5.1-1.6-3.8 1.2z"/>
				</g>
				<g id="&lt;Group&gt;">
					<path id="&lt;Path&gt;" class="s1" d="m633.5 159.8c1.4 0.1 1.6-2 0.3-2.4-1.5-0.2-2.1 2.4-0.3 2.4z"/>
				</g>
				<g id="&lt;Group&gt;">
					<path id="&lt;Path&gt;" class="s1" d="m607.4 146.6c2.4 1.1 4.1-2.4 2.2-3.9-2.4-1.5-5.3 2.5-2.2 3.9z"/>
				</g>
			</g>
			<g id="&lt;Group&gt;" style="mix-blend-mode: screen">
				<g id="&lt;Group&gt;">
					<path id="&lt;Path&gt;" class="s1" d="m307.9 38.7c-0.9 2.4 2.6 3.7 3.9 1.7 1.3-2.4-2.9-4.8-3.9-1.7z"/>
				</g>
				<g id="&lt;Group&gt;">
					<path id="&lt;Path&gt;" class="s1" d="m287 15.1c1.1-0.1 1-1.8-0.1-1.9-1.2-0.1-1.4 2.1 0.1 1.9z"/>
				</g>
				<g id="&lt;Group&gt;">
					<path id="&lt;Path&gt;" class="s1" d="m264.3 24.4c1.2 1.1 2.7-0.7 1.8-1.9-1.1-1.2-3.4 0.7-1.8 1.9z"/>
				</g>
				<g id="&lt;Group&gt;">
					<path id="&lt;Path&gt;" class="s1" d="m256 14.7c-2 0.3-1.6 3.1 0.2 3.2 2.2 0 2.2-3.7-0.2-3.2z"/>
				</g>
				<g id="&lt;Group&gt;">
					<path id="&lt;Path&gt;" class="s1" d="m240.1-4.8c-1.6 0.5-0.8 2.8 0.7 2.6 1.7-0.3 1.3-3.4-0.7-2.6z"/>
				</g>
				<g id="&lt;Group&gt;">
					<path id="&lt;Path&gt;" class="s1" d="m234.7-12.5c1.6-0.7 0.6-3.1-1.1-2.7-1.8 0.6-0.9 3.7 1.1 2.7z"/>
				</g>
				<g id="&lt;Group&gt;">
					<path id="&lt;Path&gt;" class="s1" d="m202.1-10c0.8 0.9 2.1-0.3 1.5-1.2-0.7-1.1-2.6 0.1-1.5 1.2z"/>
				</g>
			</g>
			<g id="&lt;Group&gt;" style="mix-blend-mode: screen">
				<g id="&lt;Group&gt;">
					<path id="&lt;Path&gt;" class="s1" d="m213.3 25.5c-1.6 1.4 0.4 3.7 2.1 2.7 1.8-1.2-0.2-4.5-2.1-2.7z"/>
				</g>
				<g id="&lt;Group&gt;">
					<path id="&lt;Path&gt;" class="s1" d="m196.6 20.1c-0.9 1.3 1 2.7 2.1 1.7 1.2-1.3-0.9-3.4-2.1-1.7z"/>
				</g>
			</g>
			<g id="&lt;Group&gt;" style="mix-blend-mode: screen">
				<g id="&lt;Group&gt;">
					<path id="&lt;Path&gt;" class="s1" d="m206.7 28.4c0.4 2.3 3.8 1.7 3.8-0.5-0.1-2.5-4.5-2.4-3.8 0.5z"/>
				</g>
				<g id="&lt;Group&gt;">
					<path id="&lt;Path&gt;" class="s1" d="m197.9 31.9c-1.6-1.9-4.5 0.5-3.4 2.6 1.6 2.2 5.6-0.2 3.4-2.6z"/>
				</g>
				<g id="&lt;Group&gt;">
					<path id="&lt;Path&gt;" class="s1" d="m176 53.4c1 1.9 3.7 0.5 3.2-1.4-0.7-2.1-4.5-0.9-3.2 1.4z"/>
				</g>
				<g id="&lt;Group&gt;">
					<path id="&lt;Path&gt;" class="s1" d="m166 26.2c-1.1 0.9 0.1 2.5 1.3 1.9 1.3-0.8 0-3.1-1.3-1.9z"/>
				</g>
				<g id="&lt;Group&gt;">
					<path id="&lt;Path&gt;" class="s1" d="m135 48.5c-2.1-1.3-4.1 1.7-2.5 3.4 2.1 1.6 5.2-1.8 2.5-3.4z"/>
				</g>
				<g id="&lt;Group&gt;">
					<path id="&lt;Path&gt;" class="s1" d="m115.4 15.7c0.9 1.1 2.5-0.3 1.9-1.5-0.9-1.2-3.2 0.2-1.9 1.5z"/>
				</g>
				<g id="&lt;Group&gt;">
					<path id="&lt;Path&gt;" class="s1" d="m103.9 35.6c0.5-2.2-2.8-2.8-3.6-0.9-0.7 2.3 3.3 3.8 3.6 0.9z"/>
				</g>
				<g id="&lt;Group&gt;">
					<path id="&lt;Path&gt;" class="s1" d="m95 22.7c-1.2-1.6-3.7 0.2-2.9 1.9 1.2 1.9 4.6 0.2 2.9-1.9z"/>
				</g>
				<g id="&lt;Group&gt;">
					<path id="&lt;Path&gt;" class="s1" d="m63 26c0.6 1 2.1 0.2 1.8-0.8-0.4-1.2-2.5-0.5-1.8 0.8z"/>
				</g>
				<g id="&lt;Group&gt;">
					<path id="&lt;Path&gt;" class="s1" d="m36.5 2.5c-0.7 1.6 1.7 2.6 2.6 1.3 0.9-1.7-1.9-3.4-2.6-1.3z"/>
				</g>
			</g>
			<g id="&lt;Group&gt;" style="mix-blend-mode: screen">
				<g id="&lt;Group&gt;">
					<path id="&lt;Path&gt;" class="s1" d="m235 55.5c1.7-1 0.3-3.5-1.5-2.9-2 0.9-0.6 4.3 1.5 2.9z"/>
				</g>
				<g id="&lt;Group&gt;">
					<path id="&lt;Path&gt;" class="s1" d="m216.8 46.9c-0.4 1.6 2 2.2 2.7 0.8 0.6-1.7-2.3-2.9-2.7-0.8z"/>
				</g>
			</g>
			<g id="&lt;Group&gt;" style="mix-blend-mode: screen">
				<path id="&lt;Path&gt;" class="s1" d="m6.4 40.9c0.8-1.2-1-2.5-2-1.5-1.1 1.2 1 3.2 2 1.5z"/>
			</g>
			<g id="&lt;Group&gt;" style="mix-blend-mode: screen">
				<g id="&lt;Group&gt;">
					<path id="&lt;Path&gt;" class="s1" d="m171.4 112.7c-1.2-1-2.7 0.6-1.8 1.7 1.1 1.3 3.2-0.5 1.8-1.7z"/>
				</g>
				<g id="&lt;Group&gt;">
					<path id="&lt;Path&gt;" class="s1" d="m162.8 86.2c1.9 0.4 2.4-2.4 0.8-3-2-0.7-3.2 2.7-0.8 3z"/>
				</g>
				<g id="&lt;Group&gt;">
					<path id="&lt;Path&gt;" class="s1" d="m152.4 83c0.6-2.2-2.7-3.1-3.6-1.2-0.9 2.3 3.1 4 3.6 1.2z"/>
				</g>
				<g id="&lt;Group&gt;">
					<path id="&lt;Path&gt;" class="s1" d="m122.5 92.2c-1-1.5-3.4 0-2.7 1.6 0.9 1.9 4.2 0.4 2.7-1.6z"/>
				</g>
				<g id="&lt;Group&gt;">
					<path id="&lt;Path&gt;" class="s1" d="m110.7 103.8c-0.9-1.4-3 0-2.3 1.5 0.8 1.6 3.6 0.2 2.3-1.5z"/>
				</g>
				<g id="&lt;Group&gt;">
					<path id="&lt;Path&gt;" class="s1" d="m81.1 82.4c2.4-0.4 1.8-4-0.4-4.1-2.7 0.2-2.6 4.7 0.4 4.1z"/>
				</g>
				<g id="&lt;Group&gt;">
					<path id="&lt;Path&gt;" class="s1" d="m52.7 107.7c1 0.7 2-0.7 1.3-1.6-1-0.9-2.6 0.7-1.3 1.6z"/>
				</g>
				<g id="&lt;Group&gt;">
					<path id="&lt;Path&gt;" class="s1" d="m30.8 92.6c1.4-1.8-1.2-3.8-2.8-2.5-1.7 1.7 1.2 4.8 2.8 2.5z"/>
				</g>
				<g id="&lt;Group&gt;">
					<path id="&lt;Path&gt;" class="s1" d="m19.3 86.4c1.2 0.7 2.2-1 1.3-1.9-1.2-0.8-2.8 1.1-1.3 1.9z"/>
				</g>
			</g>
			<g id="&lt;Group&gt;" style="mix-blend-mode: screen">
				<path id="&lt;Path&gt;" class="s1" d="m200.7 97.8c1.3-1.7-1.2-3.7-2.8-2.4-1.6 1.7 1.2 4.7 2.8 2.4z"/>
			</g>
			<g id="&lt;Group&gt;" style="mix-blend-mode: screen">
				<path id="&lt;Path&gt;" class="s1" d="m254.9 102.8c1.9 1.7 4.4-1.2 3-3.1-2-2-5.6 1.1-3 3.1z"/>
			</g>
			<g id="&lt;Group&gt;" style="mix-blend-mode: screen">
				<g id="&lt;Group&gt;">
					<path id="&lt;Path&gt;" class="s1" d="m825.8 257.2c1.6 0.3 2-2.1 0.6-2.6-1.6-0.5-2.6 2.3-0.6 2.6z"/>
				</g>
				<g id="&lt;Group&gt;">
					<path id="&lt;Path&gt;" class="s1" d="m820 232.6c0.6 2.3 4 1.6 4-0.6-0.3-2.6-4.8-2.3-4 0.6z"/>
				</g>
				<g id="&lt;Group&gt;">
					<path id="&lt;Path&gt;" class="s1" d="m789.6 227.9c0.7-1.8-1.9-2.8-2.9-1.3-1 1.8 2.1 3.6 2.9 1.3z"/>
				</g>
				<g id="&lt;Group&gt;">
					<path id="&lt;Path&gt;" class="s1" d="m766.7 233.6c-0.8 1 0.7 2.3 1.7 1.5 1-1-0.6-2.9-1.7-1.5z"/>
				</g>
				<g id="&lt;Group&gt;">
					<path id="&lt;Path&gt;" class="s1" d="m768.1 199.8c0.4 1.3 2.3 0.7 2.1-0.6-0.3-1.4-2.8-1-2.1 0.6z"/>
				</g>
				<g id="&lt;Group&gt;">
					<path id="&lt;Path&gt;" class="s1" d="m739.8 198.8c-1.2 0.7-0.2 2.5 1 2.1 1.4-0.6 0.4-3.1-1-2.1z"/>
				</g>
			</g>
			<g id="&lt;Group&gt;" style="mix-blend-mode: screen">
				<g id="&lt;Group&gt;">
					<path id="&lt;Path&gt;" class="s1" d="m826 255.8c-1.2 0-1.2 1.8-0.1 2 1.3 0.1 1.7-2.1 0.1-2z"/>
				</g>
				<g id="&lt;Group&gt;">
					<path id="&lt;Path&gt;" class="s1" d="m793.5 253.5c2.5 1 3.9-2.6 1.9-4-2.5-1.3-5 2.9-1.9 4z"/>
				</g>
				<g id="&lt;Group&gt;">
					<path id="&lt;Path&gt;" class="s1" d="m776.5 261.2c1.8-0.4 1.2-3.1-0.5-3-1.9 0.2-1.7 3.6 0.5 3z"/>
				</g>
				<g id="&lt;Group&gt;">
					<path id="&lt;Path&gt;" class="s1" d="m762.6 235.4c-2 0.1-1.9 3 0 3.3 2.1 0.2 2.6-3.6 0-3.3z"/>
				</g>
			</g>
			<g id="&lt;Group&gt;" style="mix-blend-mode: screen">
				<g id="&lt;Group&gt;">
					<path id="&lt;Path&gt;" class="s1" d="m814 269.9c0.1 1.4 2.1 1.2 2.3 0 0.1-1.5-2.5-1.7-2.3 0z"/>
				</g>
				<g id="&lt;Group&gt;">
					<path id="&lt;Path&gt;" class="s1" d="m793.8 243.2c-1.8-0.1-2 2.4-0.4 2.9 1.8 0.3 2.6-2.8 0.4-2.9z"/>
				</g>
			</g>
			<g id="&lt;Group&gt;" style="mix-blend-mode: screen">
				<g id="&lt;Group&gt;">
					<path id="&lt;Path&gt;" class="s1" d="m921.5 258.7c-1.5 0-1.6 2.2-0.2 2.5 1.6 0.3 2.1-2.5 0.2-2.5z"/>
				</g>
				<g id="&lt;Group&gt;">
					<path id="&lt;Path&gt;" class="s1" d="m905 261.1c-1.8 0.5-1.1 3 0.6 2.9 1.9-0.3 1.5-3.7-0.6-2.9z"/>
				</g>
				<g id="&lt;Group&gt;">
					<path id="&lt;Path&gt;" class="s1" d="m882.8 255.4c2.5 0.7 3.6-3.1 1.4-4.2-2.7-1-4.7 3.5-1.4 4.2z"/>
				</g>
				<g id="&lt;Group&gt;">
					<path id="&lt;Path&gt;" class="s1" d="m867.8 217.7c-0.6 1.3 1.3 2.2 2.1 1.1 0.8-1.3-1.4-2.8-2.1-1.1z"/>
				</g>
				<g id="&lt;Group&gt;">
					<path id="&lt;Path&gt;" class="s1" d="m840.1 214.1c-1.3-0.9-2.7 0.9-1.7 2 1.3 1.2 3.4-0.9 1.7-2z"/>
				</g>
			</g>
			<g id="&lt;Group&gt;" style="mix-blend-mode: screen">
				<g id="&lt;Group&gt;">
					<path id="&lt;Path&gt;" class="s1" d="m880.4 239.3c-2 1.4-0.1 4.3 2 3.5 2.3-1.2 0.4-5.3-2-3.5z"/>
				</g>
				<g id="&lt;Group&gt;">
					<path id="&lt;Path&gt;" class="s1" d="m862.6 243.1c1.2 1.1 2.9-0.6 2-1.8-1.1-1.3-3.5 0.5-2 1.8z"/>
				</g>
				<g id="&lt;Group&gt;">
					<path id="&lt;Path&gt;" class="s1" d="m843.7 222.7c-1.3-1.3-3.3 0.6-2.4 2 1.2 1.6 4.1-0.4 2.4-2z"/>
				</g>
			</g>
			<g id="&lt;Group&gt;" style="mix-blend-mode: screen">
				<g id="&lt;Group&gt;">
					<path id="&lt;Path&gt;" class="s1" d="m792.2 205.3c2 0.2 2.3-2.6 0.5-3.1-2-0.5-2.9 3-0.5 3.1z"/>
				</g>
				<g id="&lt;Group&gt;">
					<path id="&lt;Path&gt;" class="s1" d="m776.5 199.1c-0.6-1.8-3.3-0.9-3.1 0.9 0.5 2 4 1.4 3.1-0.9z"/>
				</g>
				<g id="&lt;Group&gt;">
					<path id="&lt;Path&gt;" class="s1" d="m765.7 157.6c1.3-0.4 0.8-2.3-0.5-2.2-1.4 0.2-1.1 2.7 0.5 2.2z"/>
				</g>
				<g id="&lt;Group&gt;">
					<path id="&lt;Path&gt;" class="s1" d="m737 141.2c-1.1 1.4 0.8 3 2.1 2 1.3-1.3-0.9-3.8-2.1-2z"/>
				</g>
				<g id="&lt;Group&gt;">
					<path id="&lt;Path&gt;" class="s1" d="m712 170.8c-0.4-1.3-2.4-0.6-2.2 0.7 0.3 1.4 2.9 1 2.2-0.7z"/>
				</g>
			</g>
			<g id="&lt;Group&gt;" style="mix-blend-mode: screen">
				<g id="&lt;Group&gt;">
					<path id="&lt;Path&gt;" class="s1" d="m697.5 130.6c1.8 1.4 3.9-1.3 2.5-2.9-1.8-1.8-4.9 1.2-2.5 2.9z"/>
				</g>
				<g id="&lt;Group&gt;">
					<path id="&lt;Path&gt;" class="s1" d="m664.9 146.1c2.5 0.7 3.4-2.9 1.3-3.9-2.5-0.9-4.4 3.3-1.3 3.9z"/>
				</g>
			</g>
			<g id="&lt;Group&gt;" style="mix-blend-mode: screen">
				<path id="&lt;Path&gt;" class="s1" d="m630.8 88.8c-0.2-1.5-2.4-1.2-2.5 0.1 0 1.7 2.8 1.7 2.5-0.1z"/>
			</g>
			<g id="&lt;Group&gt;" style="mix-blend-mode: screen">
				<path id="&lt;Path&gt;" class="s1" d="m560.7 58.9c1.3 0 1.4-2 0.2-2.3-1.5-0.2-2 2.4-0.2 2.3z"/>
			</g>
			<g id="&lt;Group&gt;" style="mix-blend-mode: screen">
				<path id="&lt;Path&gt;" class="s1" d="m551.7 59.5c-1.4 1.7 1.1 3.8 2.7 2.5 1.7-1.8-1.1-4.8-2.7-2.5z"/>
			</g>
			<g id="&lt;Group&gt;" style="mix-blend-mode: screen">
				<g id="&lt;Group&gt;">
					<path id="&lt;Path&gt;" class="s1" d="m644.7 67.4c-1 0.8 0.3 2.2 1.3 1.7 1.1-0.8-0.2-2.8-1.3-1.7z"/>
				</g>
				<g id="&lt;Group&gt;">
					<path id="&lt;Path&gt;" class="s1" d="m627.1 80.3c-0.9 1.7 1.6 3.1 2.7 1.7 1.2-1.7-1.7-3.9-2.7-1.7z"/>
				</g>
				<g id="&lt;Group&gt;">
					<path id="&lt;Path&gt;" class="s1" d="m618.8 66.3c1.5 1.2 3.3-1 2.2-2.3-1.5-1.5-4.1 0.9-2.2 2.3z"/>
				</g>
				<g id="&lt;Group&gt;">
					<path id="&lt;Path&gt;" class="s1" d="m601 74.1c-1.1-0.6-1.9 1-1 1.8 1.1 0.7 2.5-1.1 1-1.8z"/>
				</g>
				<g id="&lt;Group&gt;">
					<path id="&lt;Path&gt;" class="s1" d="m572.7 69.9c0 2.5 3.6 2.6 4.1 0.3 0.4-2.7-4.2-3.5-4.1-0.3z"/>
				</g>
			</g>
			<g id="&lt;Group&gt;" style="mix-blend-mode: screen">
				<path id="&lt;Path&gt;" class="s1" d="m660.7 71c-0.3 2.6 3.5 3.1 4.3 0.8 0.6-2.8-4.1-4.1-4.3-0.8z"/>
			</g>
			<g id="&lt;Group&gt;" style="mix-blend-mode: screen">
				<g id="&lt;Group&gt;">
					<path id="&lt;Path&gt;" class="s1" d="m965.7 253.5c1.5 1.5 3.7-0.6 2.7-2.2-1.4-1.8-4.6 0.4-2.7 2.2z"/>
				</g>
				<g id="&lt;Group&gt;">
					<path id="&lt;Path&gt;" class="s1" d="m959.3 234.8c-1.3 0.7-0.3 2.6 1 2.2 1.5-0.5 0.6-3.1-1-2.2z"/>
				</g>
				<g id="&lt;Group&gt;">
					<path id="&lt;Path&gt;" class="s1" d="m949.9 221.3c0.8 1.2 2.4 0.1 2-1.1-0.7-1.3-3-0.2-2 1.1z"/>
				</g>
				<g id="&lt;Group&gt;">
					<path id="&lt;Path&gt;" class="s1" d="m924.5 214.1c2-1.6-0.3-4.6-2.4-3.6-2.4 1.5-0.1 5.7 2.4 3.6z"/>
				</g>
				<g id="&lt;Group&gt;">
					<path id="&lt;Path&gt;" class="s1" d="m916.8 186.2c-0.3-1-1.9-0.6-1.8 0.5 0.2 1.2 2.3 0.9 1.8-0.5z"/>
				</g>
				<g id="&lt;Group&gt;">
					<path id="&lt;Path&gt;" class="s1" d="m899.9 176.4c-2.3 1.2-0.7 4.7 1.7 4 2.7-0.9 1.2-5.6-1.7-4z"/>
				</g>
				<g id="&lt;Group&gt;">
					<path id="&lt;Path&gt;" class="s1" d="m864.9 189.5c2.7-0.4 2.1-4.3-0.3-4.5-2.9 0.1-3 5.1 0.3 4.5z"/>
				</g>
				<g id="&lt;Group&gt;">
					<path id="&lt;Path&gt;" class="s1" d="m847.7 172.5c-0.9-1.8-3.5-0.5-3.1 1.3 0.8 2.1 4.4 0.9 3.1-1.3z"/>
				</g>
			</g>
			<g id="&lt;Group&gt;" style="mix-blend-mode: screen">
				<g id="&lt;Group&gt;">
					<path id="&lt;Path&gt;" class="s1" d="m943.6 234c1.1-0.7 0.1-2.3-1-1.9-1.2 0.6-0.3 2.8 1 1.9z"/>
				</g>
				<g id="&lt;Group&gt;">
					<path id="&lt;Path&gt;" class="s1" d="m932.1 196.6c-1.2 0.5-0.5 2.3 0.7 2.1 1.4-0.4 0.8-2.8-0.7-2.1z"/>
				</g>
			</g>
			<g id="&lt;Group&gt;" style="mix-blend-mode: screen">
				<g id="&lt;Group&gt;">
					<path id="&lt;Path&gt;" class="s1" d="m55.3 21.6c-0.2-2.2-3.4-1.9-3.7 0.1-0.1 2.4 4 2.7 3.7-0.1z"/>
				</g>
				<g id="&lt;Group&gt;">
					<path id="&lt;Path&gt;" class="s1" d="m13.9 39.8c2.2 0.2 2.5-2.9 0.6-3.5-2.3-0.5-3.3 3.4-0.6 3.5z"/>
				</g>
			</g>
			<g id="&lt;Group&gt;" style="mix-blend-mode: screen">
				<path id="&lt;Path&gt;" class="s1" d="m36.9 18.4c1.6 0.1 1.7-2.3 0.3-2.7-1.8-0.2-2.3 2.8-0.3 2.7z"/>
			</g>
			<g id="&lt;Group&gt;" style="mix-blend-mode: screen">
				<g id="&lt;Group&gt;">
					<path id="&lt;Path&gt;" class="s1" d="m940.5 166.3c-1.1 0.8 0.1 2.4 1.2 1.8 1.3-0.7 0.1-2.9-1.2-1.8z"/>
				</g>
				<g id="&lt;Group&gt;">
					<path id="&lt;Path&gt;" class="s1" d="m932.2 137.6c-0.6-1-2-0.1-1.7 0.9 0.5 1.1 2.5 0.3 1.7-0.9z"/>
				</g>
				<g id="&lt;Group&gt;">
					<path id="&lt;Path&gt;" class="s1" d="m913 130.8c-0.7 1.2 1.1 2.2 1.9 1.2 0.9-1.2-1.2-2.8-1.9-1.2z"/>
				</g>
				<g id="&lt;Group&gt;">
					<path id="&lt;Path&gt;" class="s1" d="m891 139.1c-1.7 0-1.9 2.5-0.3 2.9 1.8 0.3 2.5-2.9 0.3-2.9z"/>
				</g>
				<g id="&lt;Group&gt;">
					<path id="&lt;Path&gt;" class="s1" d="m875 132.9c-1.4 1.2 0.4 3.2 1.9 2.4 1.6-1.2-0.2-4.1-1.9-2.4z"/>
				</g>
			</g>
			<g id="&lt;Group&gt;" style="mix-blend-mode: screen">
				<path id="&lt;Path&gt;" class="s1" d="m789.9 75.9c1.2-1.2-0.7-3-2-2.1-1.5 1.2 0.5 3.8 2 2.1z"/>
			</g>
			<g id="&lt;Group&gt;" style="mix-blend-mode: screen">
				<path id="&lt;Path&gt;" class="s1" d="m605.8 40.8c1.5-0.2 1.3-2.4-0.1-2.5-1.6-0.1-1.8 2.8 0.1 2.5z"/>
			</g>
			<g id="&lt;Group&gt;" style="mix-blend-mode: screen">
				<path id="&lt;Path&gt;" class="s1" d="m421.7 21.9c1.8 0.1 2-2.6 0.3-3.1-1.9-0.3-2.7 3.1-0.3 3.1z"/>
			</g>
			<g id="&lt;Group&gt;" style="mix-blend-mode: screen">
				<path id="&lt;Path&gt;" class="s1" d="m489.4 20.7c2.6 0 2.6-3.9 0.3-4.4-2.9-0.3-3.6 4.6-0.3 4.4z"/>
			</g>
			<g id="&lt;Group&gt;" style="mix-blend-mode: screen">
				<g id="&lt;Group&gt;">
					<path id="&lt;Path&gt;" class="s1" d="m455.1 23.7c-2.1-1.1-3.6 2-1.9 3.4 2.1 1.3 4.6-2.3 1.9-3.4z"/>
				</g>
				<g id="&lt;Group&gt;">
					<path id="&lt;Path&gt;" class="s1" d="m438.7 19.3c-0.1-1.6-2.4-1.4-2.6 0.1-0.1 1.7 2.9 1.9 2.6-0.1z"/>
				</g>
				<g id="&lt;Group&gt;">
					<path id="&lt;Path&gt;" class="s1" d="m421.5-8.5c1.2-0.8 0-2.5-1.2-2-1.4 0.7-0.2 3.1 1.2 2z"/>
				</g>
			</g>
			<g id="&lt;Group&gt;" style="mix-blend-mode: screen">
				<g id="&lt;Group&gt;">
					<path id="&lt;Path&gt;" class="s1" d="m383.2 1.1c1.4-1.8-1.1-3.8-2.8-2.5-1.7 1.7 1.1 4.8 2.8 2.5z"/>
				</g>
				<g id="&lt;Group&gt;">
					<path id="&lt;Path&gt;" class="s1" d="m367.5-19.2c0.2 1.8 2.8 1.5 3-0.2 0-1.9-3.4-2-3 0.2z"/>
				</g>
			</g>
			<g id="&lt;Group&gt;" style="mix-blend-mode: screen">
				<path id="&lt;Path&gt;" class="s1" d="m319.7 93c-0.1 1.5 2.1 1.6 2.4 0.3 0.2-1.6-2.4-2.1-2.4-0.3z"/>
			</g>
			<g id="&lt;Group&gt;" style="mix-blend-mode: screen">
				<g id="&lt;Group&gt;">
					<path id="&lt;Path&gt;" class="s1" d="m414 156.1c1.3-0.5 0.6-2.4-0.7-2.1-1.4 0.4-0.9 2.9 0.7 2.1z"/>
				</g>
				<g id="&lt;Group&gt;">
					<path id="&lt;Path&gt;" class="s1" d="m394.7 168.9c0.1-2.4-3.5-2.5-4-0.3-0.4 2.6 4.1 3.4 4 0.3z"/>
				</g>
				<g id="&lt;Group&gt;">
					<path id="&lt;Path&gt;" class="s1" d="m374.4 144.4c1-1.6-1.3-3.1-2.5-1.9-1.3 1.6 1.3 4 2.5 1.9z"/>
				</g>
				<g id="&lt;Group&gt;">
					<path id="&lt;Path&gt;" class="s1" d="m356.4 146c-0.7-0.9-2.1 0.2-1.5 1.2 0.7 1 2.6-0.1 1.5-1.2z"/>
				</g>
				<g id="&lt;Group&gt;">
					<path id="&lt;Path&gt;" class="s1" d="m348.9 133c-1-0.9-2.4 0.5-1.7 1.5 0.9 1.1 3-0.4 1.7-1.5z"/>
				</g>
				<g id="&lt;Group&gt;">
					<path id="&lt;Path&gt;" class="s1" d="m342 106.5c2.2 0.5 2.9-2.6 1.1-3.4-2.3-0.8-3.8 3-1.1 3.4z"/>
				</g>
				<g id="&lt;Group&gt;">
					<path id="&lt;Path&gt;" class="s1" d="m330.5 98.4c-2.5-0.7-3.6 2.9-1.5 4.1 2.6 1.1 4.7-3.3 1.5-4.1z"/>
				</g>
			</g>
			<g id="&lt;Group&gt;" style="mix-blend-mode: screen">
				<g id="&lt;Group&gt;">
					<path id="&lt;Path&gt;" class="s1" d="m442.9 226.5c-0.4-1-1.9-0.3-1.6 0.7 0.3 1.1 2.3 0.5 1.6-0.7z"/>
				</g>
				<g id="&lt;Group&gt;">
					<path id="&lt;Path&gt;" class="s1" d="m413.6 211.9c0.4 2 3.3 1.4 3.3-0.5-0.2-2.2-4-2-3.3 0.5z"/>
				</g>
				<g id="&lt;Group&gt;">
					<path id="&lt;Path&gt;" class="s1" d="m398.1 204.5c1.4 0.5 2.1-1.6 0.9-2.3-1.5-0.6-2.7 1.9-0.9 2.3z"/>
				</g>
				<g id="&lt;Group&gt;">
					<path id="&lt;Path&gt;" class="s1" d="m400.4 178.7c1.5-1.2-0.3-3.5-2-2.6-1.8 1.2 0.1 4.3 2 2.6z"/>
				</g>
				<g id="&lt;Group&gt;">
					<path id="&lt;Path&gt;" class="s1" d="m383.9 180c1.9 0.3 2.4-2.5 0.7-3.2-2.1-0.6-3.2 2.9-0.7 3.2z"/>
				</g>
				<g id="&lt;Group&gt;">
					<path id="&lt;Path&gt;" class="s1" d="m351 200.8c1.5 1.2 3.3-1.1 2.2-2.5-1.6-1.5-4.3 1.1-2.2 2.5z"/>
				</g>
				<g id="&lt;Group&gt;">
					<path id="&lt;Path&gt;" class="s1" d="m337.4 186.8c-2.5 0.2-2.2 3.9 0.1 4.2 2.8 0 3.1-4.7-0.1-4.2z"/>
				</g>
			</g>
			<g id="&lt;Group&gt;" style="mix-blend-mode: screen">
				<g id="&lt;Group&gt;">
					<path id="&lt;Path&gt;" class="s1" d="m527.6 251.9c-2.2-1.4-4.3 1.9-2.5 3.5 2.2 1.8 5.4-1.9 2.5-3.5z"/>
				</g>
				<g id="&lt;Group&gt;">
					<path id="&lt;Path&gt;" class="s1" d="m504.1 247.4c0.5 1.8 3.1 1.2 3.1-0.5-0.2-2-3.7-1.8-3.1 0.5z"/>
				</g>
				<g id="&lt;Group&gt;">
					<path id="&lt;Path&gt;" class="s1" d="m480.6 256.9c0.7 0.9 2.1-0.1 1.6-1.1-0.6-1.1-2.5-0.1-1.6 1.1z"/>
				</g>
				<g id="&lt;Group&gt;">
					<path id="&lt;Path&gt;" class="s1" d="m485.2 232.7c0.7-2.2-2.4-3.2-3.5-1.4-1 2.2 2.7 4.1 3.5 1.4z"/>
				</g>
			</g>
			<g id="&lt;Group&gt;" style="mix-blend-mode: screen">
				<g id="&lt;Group&gt;">
					<path id="&lt;Path&gt;" class="s1" d="m525.9 253.3c0.8 1.9 3.7 0.7 3.3-1.3-0.7-2.1-4.5-1.1-3.3 1.3z"/>
				</g>
				<g id="&lt;Group&gt;">
					<path id="&lt;Path&gt;" class="s1" d="m518 225.6c-1.1-2.3-4.5-0.8-4 1.5 0.9 2.6 5.4 1.4 4-1.5z"/>
				</g>
			</g>
			<g id="&lt;Group&gt;" style="mix-blend-mode: screen">
				<path id="&lt;Path&gt;" class="s1" d="m528.9 225.1c0.3 2 3.2 1.6 3.4-0.2 0-2.2-3.8-2.4-3.4 0.2z"/>
			</g>
			<g id="&lt;Group&gt;" style="mix-blend-mode: screen">
				<path id="&lt;Path&gt;" class="s1" d="m116.2 139.1c-1-2.2-4.2-0.6-3.7 1.5 0.9 2.5 5.2 1.1 3.7-1.5z"/>
			</g>
			<g id="&lt;Group&gt;" style="mix-blend-mode: screen">
				<path id="&lt;Path&gt;" class="s1" d="m39.6 61.9c-1.3-1.2-3.1 0.6-2.2 1.9 1.2 1.5 3.8-0.4 2.2-1.9z"/>
			</g>
			<g id="&lt;Group&gt;" style="mix-blend-mode: screen">
				<path id="&lt;Path&gt;" class="s1" d="m208.2 47.6c-3.6-0.7-4.8 4.5-1.6 5.9 3.7 1.3 6.2-5.1 1.6-5.9z"/>
			</g>
			<g id="&lt;Group&gt;" style="mix-blend-mode: screen">
				<g id="&lt;Group&gt;">
					<path id="&lt;Path&gt;" class="s1" d="m590.8 148.2c0.2 2.1 3.2 1.8 3.4-0.1 0.1-2.2-3.8-2.5-3.4 0.1z"/>
				</g>
				<g id="&lt;Group&gt;">
					<path id="&lt;Path&gt;" class="s1" d="m569.1 94c-2.8 1-1.3 5 1.4 4.6 3.1-0.8 1.9-6.1-1.4-4.6z"/>
				</g>
			</g>
			<g id="&lt;Group&gt;" style="mix-blend-mode: screen">
				<g id="&lt;Group&gt;">
					<path id="&lt;Path&gt;" class="s1" d="m811.6 227.3c1.3 1.5 3.5-0.3 2.7-1.9-1.2-1.8-4.3 0-2.7 1.9z"/>
				</g>
				<g id="&lt;Group&gt;">
					<path id="&lt;Path&gt;" class="s1" d="m808.1 157.5c-3.6 1-2 6.3 1.4 6.1 4-0.7 3.1-7.7-1.4-6.1z"/>
				</g>
				<g id="&lt;Group&gt;">
					<path id="&lt;Path&gt;" class="s1" d="m787.2 167.9c3-0.4 2.5-4.9-0.3-5.2-3.4 0.1-3.6 5.8 0.3 5.2z"/>
				</g>
				<g id="&lt;Group&gt;">
					<path id="&lt;Path&gt;" class="s1" d="m738.5 173.1c2-2.4-1.6-5.4-3.9-3.6-2.4 2.4 1.5 6.9 3.9 3.6z"/>
				</g>
			</g>
			<g id="&lt;Group&gt;" style="mix-blend-mode: screen">
				<g id="&lt;Group&gt;">
					<path id="&lt;Path&gt;" class="s1" d="m894.9 243.4c2.5-3-1.8-6.6-4.6-4.4-2.9 2.8 1.7 8.2 4.6 4.4z"/>
				</g>
				<g id="&lt;Group&gt;">
					<path id="&lt;Path&gt;" class="s1" d="m859.9 225.8c-2.8-1.1-4.5 3-2.1 4.6 2.9 1.5 5.8-3.5 2.1-4.6z"/>
				</g>
				<g id="&lt;Group&gt;">
					<path id="&lt;Path&gt;" class="s1" d="m845.7 161c2.2 1.1 4-2.2 2.1-3.6-2.2-1.5-5 2.3-2.1 3.6z"/>
				</g>
			</g>
			<g id="&lt;Group&gt;" style="mix-blend-mode: screen">
				<g id="&lt;Group&gt;">
					<path id="&lt;Path&gt;" class="s1" d="m938.6 210.8c-1.1-3.4-6-1.8-5.7 1.4 0.8 3.8 7.3 2.7 5.7-1.4z"/>
				</g>
				<g id="&lt;Group&gt;">
					<path id="&lt;Path&gt;" class="s1" d="m867.5 225.3c2.2 1.7 4.6-1.6 2.8-3.5-2.2-2-5.8 1.7-2.8 3.5z"/>
				</g>
			</g>
			<g id="&lt;Group&gt;" style="mix-blend-mode: screen">
				<g id="&lt;Group&gt;">
					<path id="&lt;Path&gt;" class="s1" d="m944.6 219.3c0.6 1.5 2.9 0.6 2.6-0.9-0.5-1.7-3.5-1.1-2.6 0.9z"/>
				</g>
				<g id="&lt;Group&gt;">
					<path id="&lt;Path&gt;" class="s1" d="m912.7 211.6c-2.9-0.5-3.7 3.7-1.1 4.8 3 0.9 4.8-4.4 1.1-4.8z"/>
				</g>
			</g>
			<g id="&lt;Group&gt;" style="mix-blend-mode: screen">
				<g id="&lt;Group&gt;">
					<path id="&lt;Path&gt;" class="s1" d="m970 202.6c3.4 0.5 4-4.4 1.1-5.5-3.5-0.8-5.3 5.2-1.1 5.5z"/>
				</g>
				<g id="&lt;Group&gt;">
					<path id="&lt;Path&gt;" class="s1" d="m942.1 204.8c1.6 2 4.5-0.3 3.4-2.4-1.4-2.4-5.6 0-3.4 2.4z"/>
				</g>
			</g>
			<g id="&lt;Group&gt;" style="mix-blend-mode: screen">
				<g id="&lt;Group&gt;">
					<path id="&lt;Path&gt;" class="s1" d="m927.9 214.9c0.7-1.4-1.5-2.5-2.4-1.3-0.9 1.5 1.6 3.2 2.4 1.3z"/>
				</g>
				<g id="&lt;Group&gt;">
					<path id="&lt;Path&gt;" class="s1" d="m895.3 211.1c-1.3 1.6 1 3.3 2.4 2.1 1.5-1.5-1-4.1-2.4-2.1z"/>
				</g>
			</g>
			<g id="&lt;Group&gt;" style="mix-blend-mode: screen">
				<g id="&lt;Group&gt;">
					<path id="&lt;Path&gt;" class="s1" d="m907 261.4c0.2-2-2.7-2.2-3.3-0.4-0.3 2.1 3.3 2.9 3.3 0.4z"/>
				</g>
				<g id="&lt;Group&gt;">
					<path id="&lt;Path&gt;" class="s1" d="m891.8 226.2c0.3 2.4 3.9 2 4-0.3 0-2.6-4.5-2.7-4 0.3z"/>
				</g>
			</g>
			<g id="&lt;Group&gt;" style="mix-blend-mode: screen">
				<path id="&lt;Path&gt;" class="s1" d="m452.3 68.9c2.5 2.3 5.8-1.3 4-3.9-2.4-2.7-7.3 1.2-4 3.9z"/>
			</g>
			<g id="&lt;Group&gt;" style="mix-blend-mode: screen">
				<g id="&lt;Group&gt;">
					<path id="&lt;Path&gt;" class="s1" d="m420.1 112.7c1.9 2.3 5.2-0.4 4-2.8-1.7-2.7-6.5 0-4 2.8z"/>
				</g>
				<g id="&lt;Group&gt;">
					<path id="&lt;Path&gt;" class="s1" d="m407.1 99.9c2.2-2.1-0.8-5.3-3.2-3.9-2.6 1.9 0.5 6.6 3.2 3.9z"/>
				</g>
			</g>
			<g id="&lt;Group&gt;" style="mix-blend-mode: screen">
				<path id="&lt;Path&gt;" class="s1" d="m243.6 6.1c-1.6 0.1-1.6 2.5-0.1 2.8 1.8 0.2 2.3-2.9 0.1-2.8z"/>
			</g>
			<g id="&lt;Group&gt;" style="mix-blend-mode: screen">
				<path id="&lt;Path&gt;" class="s1" d="m203.7 21.3c2.3-0.8 1.2-4.2-1.1-4-2.6 0.6-1.8 5.2 1.1 4z"/>
			</g>
			<g id="&lt;Group&gt;" style="mix-blend-mode: screen">
				<g id="&lt;Group&gt;">
					<path id="&lt;Path&gt;" class="s1" d="m43.5 23.9c0.3 1.8 3 1.4 3.1-0.3-0.1-2-3.5-2-3.1 0.3z"/>
				</g>
				<g id="&lt;Group&gt;">
					<path id="&lt;Path&gt;" class="s1" d="m9.7 38.7c-1.6-1.8-4.2 0.6-3 2.5 1.5 2.1 5.3-0.4 3-2.5z"/>
				</g>
			</g>
			<g id="&lt;Group&gt;" style="mix-blend-mode: screen">
				<path id="&lt;Path&gt;" class="s1" d="m30.8 33.4c-1.2 2 1.7 3.7 3.1 2.1 1.6-2-1.8-4.7-3.1-2.1z"/>
			</g>
			<g id="&lt;Group&gt;" style="mix-blend-mode: screen">
				<g id="&lt;Group&gt;">
					<path id="&lt;Path&gt;" class="s1" d="m41.1 42.8c-0.9-2.6-4.8-1.3-4.5 1.2 0.6 3 5.8 2.1 4.5-1.2z"/>
				</g>
				<g id="&lt;Group&gt;">
					<path id="&lt;Path&gt;" class="s1" d="m24.9 13.2c-2.1 0.9-0.7 4 1.4 3.6 2.4-0.8 1.3-5-1.4-3.6z"/>
				</g>
			</g>
			<g id="&lt;Group&gt;" style="mix-blend-mode: screen">
				<path id="&lt;Path&gt;" class="s1" d="m43.4 59.1c1.7 3.4 6.7 0.9 5.7-2.5-1.4-3.8-8.1-1.6-5.7 2.5z"/>
			</g>
			<g id="&lt;Group&gt;" style="mix-blend-mode: screen">
				<g id="&lt;Group&gt;">
					<path id="&lt;Path&gt;" class="s1" d="m223.6 63.5c-0.4-2.3-3.8-1.7-3.9 0.4 0.2 2.6 4.6 2.5 3.9-0.4z"/>
				</g>
				<g id="&lt;Group&gt;">
					<path id="&lt;Path&gt;" class="s1" d="m192.3 29.6c-2.6-1.4-4.6 2.5-2.5 4.3 2.7 1.7 6-2.7 2.5-4.3z"/>
				</g>
			</g>
			<g id="&lt;Group&gt;" style="mix-blend-mode: screen">
				<g id="&lt;Group&gt;">
					<path id="&lt;Path&gt;" class="s1" d="m178.8 20.5c-2.7 0.2-2.5 4.1 0 4.5 2.9 0.1 3.4-4.9 0-4.5z"/>
				</g>
				<g id="&lt;Group&gt;">
					<path id="&lt;Path&gt;" class="s1" d="m110.7 29c-3.3 2.8 0.7 7.7 4.2 5.8 3.9-2.5-0.1-9.5-4.2-5.8z"/>
				</g>
			</g>
			<g id="&lt;Group&gt;" style="mix-blend-mode: screen">
				<path id="&lt;Path&gt;" class="s1" d="m151.5 23c-2.5-3.9-8.2-0.3-6.7 3.7 2.2 4.5 10.1 1.1 6.7-3.7z"/>
			</g>
			<g id="&lt;Group&gt;" style="mix-blend-mode: screen">
				<g id="&lt;Group&gt;">
					<path id="&lt;Path&gt;" class="s1" d="m410.7 55.4c-1.9 3.7 3.4 6.5 5.9 3.5 2.4-3.7-3.8-8.2-5.9-3.5z"/>
				</g>
				<g id="&lt;Group&gt;">
					<path id="&lt;Path&gt;" class="s1" d="m382.3 74.9c-3.3-0.5-4 4.2-1.1 5.3 3.4 0.9 5.2-5 1.1-5.3z"/>
				</g>
			</g>
			<g id="&lt;Group&gt;" style="mix-blend-mode: screen">
				<g id="&lt;Group&gt;">
					<path id="&lt;Path&gt;" class="s1" d="m647.4 131c-2.9-4.5-9.5-0.3-7.8 4.3 2.6 5.2 11.7 1.2 7.8-4.3z"/>
				</g>
				<g id="&lt;Group&gt;">
					<path id="&lt;Path&gt;" class="s1" d="m619.4 117.3c-1-3.6-6.2-2.1-6 1.4 0.7 3.9 7.6 3.1 6-1.4z"/>
				</g>
			</g>
			<g id="&lt;Group&gt;" style="mix-blend-mode: screen">
				<path id="&lt;Path&gt;" class="s1" d="m618.2 139.8c-0.8 2.4 2.7 3.7 3.9 1.6 1.2-2.5-3-4.7-3.9-1.6z"/>
			</g>
			<g id="&lt;Group&gt;" style="mix-blend-mode: screen">
				<path id="&lt;Path&gt;" class="s1" d="m614 155.6c1.8 2.2 5-0.4 3.7-2.7-1.6-2.5-6.1 0.2-3.7 2.7z"/>
			</g>
			<g id="&lt;Group&gt;" style="mix-blend-mode: screen">
				<path id="&lt;Path&gt;" class="s1" d="m633.4 148c-3.3 1-1.9 5.9 1.3 5.6 3.7-0.6 2.9-7.1-1.3-5.6z"/>
			</g>
			<g id="&lt;Group&gt;" style="mix-blend-mode: screen">
				<g id="&lt;Group&gt;">
					<path id="&lt;Path&gt;" class="s1" d="m598.7 197.8c2.9 0.3 3.3-3.9 0.7-4.7-3-0.6-4.3 4.6-0.7 4.7z"/>
				</g>
				<g id="&lt;Group&gt;">
					<path id="&lt;Path&gt;" class="s1" d="m589.5 173.6c-3.7 0.9-2.5 6.3 1 6.2 4-0.5 3.6-7.5-1-6.2z"/>
				</g>
				<g id="&lt;Group&gt;">
					<path id="&lt;Path&gt;" class="s1" d="m573.4 124.1c-3.7 1.5-1.6 6.9 2.1 6.3 4.1-1.2 2.4-8.4-2.1-6.3z"/>
				</g>
			</g>
			<g id="&lt;Group&gt;" style="mix-blend-mode: screen">
				<path id="&lt;Path&gt;" class="s1" d="m615.2 145.9c1.3 2.7 5.3 0.9 4.7-1.9-1.1-3.1-6.6-1.5-4.7 1.9z"/>
			</g>
			<g id="&lt;Group&gt;" style="mix-blend-mode: screen">
				<path id="&lt;Path&gt;" class="s1" d="m793.3 257.2c-3.7-0.5-4.4 4.8-1.2 5.9 3.8 1 5.8-5.6 1.2-5.9z"/>
			</g>
			<g id="&lt;Group&gt;" style="mix-blend-mode: screen">
				<path id="&lt;Path&gt;" class="s1" d="m839.5 220.8c-0.2-3.8-5.8-3.6-6.3-0.1-0.3 4.2 6.8 4.9 6.3 0.1z"/>
			</g>
			<g id="&lt;Group&gt;" style="mix-blend-mode: screen">
				<g id="&lt;Group&gt;">
					<path id="&lt;Path&gt;" class="s1" d="m377.1 64c1.2 3.5 6.3 1.7 5.9-1.7-0.9-3.9-7.7-2.7-5.9 1.7z"/>
				</g>
				<g id="&lt;Group&gt;">
					<path id="&lt;Path&gt;" class="s1" d="m337.3 65.9c-1.5 1.4 0.5 3.7 2.2 2.7 1.7-1.4-0.4-4.5-2.2-2.7z"/>
				</g>
			</g>
			<g id="&lt;Group&gt;" style="mix-blend-mode: screen">
				<path id="&lt;Path&gt;" class="s1" d="m382.2 39c-2 2 0.8 4.9 3 3.5 2.3-1.8-0.7-6-3-3.5z"/>
			</g>
			<g id="&lt;Group&gt;" style="mix-blend-mode: screen">
				<g id="&lt;Group&gt;">
					<path id="&lt;Path&gt;" class="s1" d="m428.8 57c-4-0.4-4.6 5.4-1.1 6.6 4.3 1 6.2-6.3 1.1-6.6z"/>
				</g>
				<g id="&lt;Group&gt;">
					<path id="&lt;Path&gt;" class="s1" d="m398.1 56.5c0.3 2.5 3.9 2.2 4.2-0.1 0-2.7-4.6-3-4.2 0.1z"/>
				</g>
			</g>
			<g id="&lt;Group&gt;" style="mix-blend-mode: screen">
				<path id="&lt;Path&gt;" class="s1" d="m406.2 95.1c0.5 2.8 4.6 2.1 4.7-0.5-0.2-3.1-5.5-3-4.7 0.5z"/>
			</g>
			<g id="&lt;Group&gt;" style="mix-blend-mode: screen">
				<path id="&lt;Path&gt;" class="s1" d="m409.7 98.2c1.1 2.7 5.2 1.1 4.7-1.6-0.9-3.1-6.3-1.9-4.7 1.6z"/>
			</g>
			<g id="&lt;Group&gt;" style="mix-blend-mode: screen">
				<g id="&lt;Group&gt;">
					<path id="&lt;Path&gt;" class="s1" d="m419.8 120.1c-3.3-1-4.8 3.9-2 5.5 3.5 1.4 6.3-4.5 2-5.5z"/>
				</g>
				<g id="&lt;Group&gt;">
					<path id="&lt;Path&gt;" class="s1" d="m394.8 89.2c-1.5-1.7-4.1 0.5-3 2.4 1.4 2 5.1-0.3 3-2.4z"/>
				</g>
			</g>
			<g id="&lt;Group&gt;" style="mix-blend-mode: screen">
				<g id="&lt;Group&gt;">
					<path id="&lt;Path&gt;" class="s1" d="m435.7 78.8c0.1 1.9 2.9 1.7 3.1 0 0.1-2-3.4-2.3-3.1 0z"/>
				</g>
				<g id="&lt;Group&gt;">
					<path id="&lt;Path&gt;" class="s1" d="m417.9 71.5c2.4-2.1-0.8-5.7-3.4-4.2-2.9 2 0.4 7.2 3.4 4.2z"/>
				</g>
			</g>
			<g id="&lt;Group&gt;" style="mix-blend-mode: screen">
				<g id="&lt;Group&gt;">
					<path id="&lt;Path&gt;" class="s1" d="m489.9 121.3c1.9-2.9-2.3-5.7-4.6-3.4-2.3 2.9 2.4 7.1 4.6 3.4z"/>
				</g>
				<g id="&lt;Group&gt;">
					<path id="&lt;Path&gt;" class="s1" d="m523 106.6c-0.5 3 3.9 3.8 4.9 1.1 0.9-3.2-4.5-5-4.9-1.1z"/>
				</g>
			</g>
			<g id="&lt;Group&gt;" style="mix-blend-mode: screen">
				<g id="&lt;Group&gt;">
					<path id="&lt;Path&gt;" class="s1" d="m450.4 73c2.7-2.8-1.5-6.7-4.4-4.6-3.2 2.7 1.3 8.4 4.4 4.6z"/>
				</g>
				<g id="&lt;Group&gt;">
					<path id="&lt;Path&gt;" class="s1" d="m478.9 104.2c-0.8 3.6 4.6 4.8 6 1.6 1.2-3.8-5.2-6.3-6-1.6z"/>
				</g>
				<g id="&lt;Group&gt;">
					<path id="&lt;Path&gt;" class="s1" d="m514.2 90.2c2-0.3 1.7-3.2-0.2-3.3-2.2 0-2.3 3.8 0.2 3.3z"/>
				</g>
			</g>
			<g id="&lt;Group&gt;" style="mix-blend-mode: screen">
				<g id="&lt;Group&gt;">
					<path id="&lt;Path&gt;" class="s1" d="m222.6 28.7c0.4 2.6 4.3 1.9 4.3-0.6-0.2-2.8-5.1-2.7-4.3 0.6z"/>
				</g>
				<g id="&lt;Group&gt;">
					<path id="&lt;Path&gt;" class="s1" d="m203.5 8.7c1.4 3.6 6.7 1.5 6-2.1-1.1-4-8.1-2.3-6 2.1z"/>
				</g>
			</g>
			<g id="&lt;Group&gt;" style="mix-blend-mode: screen">
				<g id="&lt;Group&gt;">
					<path id="&lt;Path&gt;" class="s1" d="m155 13.8c-2.4 2.5 1.2 6 3.9 4.2 2.9-2.4-1-7.6-3.9-4.2z"/>
				</g>
				<g id="&lt;Group&gt;">
					<path id="&lt;Path&gt;" class="s1" d="m128.7 27.5c-1 3 3.5 4.4 4.9 1.8 1.4-3.1-3.9-5.8-4.9-1.8z"/>
				</g>
				<g id="&lt;Group&gt;">
					<path id="&lt;Path&gt;" class="s1" d="m105.6 4.7c3.4-1.3 1.4-6.3-1.9-5.7-3.8 1-2.3 7.6 1.9 5.7z"/>
				</g>
			</g>
			<g id="&lt;Group&gt;" style="mix-blend-mode: screen">
				<g id="&lt;Group&gt;">
					<path id="&lt;Path&gt;" class="s1" d="m129 18c-3.3-2-6.2 2.8-3.6 5.3 3.3 2.6 7.9-2.9 3.6-5.3z"/>
				</g>
				<g id="&lt;Group&gt;">
					<path id="&lt;Path&gt;" class="s1" d="m115.5 35.2c1.9-3.3-2.9-6.2-5.3-3.5-2.5 3.3 3 7.8 5.3 3.5z"/>
				</g>
				<g id="&lt;Group&gt;">
					<path id="&lt;Path&gt;" class="s1" d="m76.5 20.7c-2.5 0-2.5 3.6-0.3 4.1 2.6 0.3 3.4-4.2 0.3-4.1z"/>
				</g>
			</g>
			<g id="&lt;Group&gt;" style="mix-blend-mode: screen">
				<path id="&lt;Path&gt;" class="s1" d="m59.8 29.4c1.8-0.1 1.6-2.8 0-3-2-0.1-2.3 3.2 0 3z"/>
			</g>
			<g id="&lt;Group&gt;" style="mix-blend-mode: screen">
				<g id="&lt;Group&gt;">
					<path id="&lt;Path&gt;" class="s1" d="m190.3 205.4c-1.1-1.6-3.4 0-2.7 1.7 1 1.8 4.2 0.3 2.7-1.7z"/>
				</g>
				<g id="&lt;Group&gt;">
					<path id="&lt;Path&gt;" class="s1" d="m160.6 199.5c0.4-1.4-1.6-2-2.2-0.8-0.6 1.4 1.8 2.6 2.2 0.8z"/>
				</g>
				<g id="&lt;Group&gt;">
					<path id="&lt;Path&gt;" class="s1" d="m148.7 172.6c1.5 1.1 3.1-1 2-2.3-1.4-1.4-3.9 1-2 2.3z"/>
				</g>
			</g>
			<g id="&lt;Group&gt;" style="mix-blend-mode: screen">
				<g id="&lt;Group&gt;">
					<path id="&lt;Path&gt;" class="s1" d="m244.6 219.9c-0.4-1.6-2.8-0.9-2.6 0.7 0.3 1.7 3.4 1.3 2.6-0.7z"/>
				</g>
				<g id="&lt;Group&gt;">
					<path id="&lt;Path&gt;" class="s1" d="m213.2 215.7c-2.1 1.6 0.1 4.8 2.4 3.8 2.5-1.4 0.2-5.9-2.4-3.8z"/>
				</g>
				<g id="&lt;Group&gt;">
					<path id="&lt;Path&gt;" class="s1" d="m212.5 185.4c-1.4 0.8-0.3 2.8 1.2 2.4 1.6-0.7 0.5-3.5-1.2-2.4z"/>
				</g>
				<g id="&lt;Group&gt;">
					<path id="&lt;Path&gt;" class="s1" d="m193.4 191.2c-0.9-1.1-2.4 0.2-1.9 1.3 0.9 1.2 3-0.1 1.9-1.3z"/>
				</g>
			</g>
			<g id="&lt;Group&gt;" style="mix-blend-mode: screen">
				<g id="&lt;Group&gt;">
					<path id="&lt;Path&gt;" class="s1" d="m339.9 208.9c0.4 2.1 3.6 1.5 3.6-0.6-0.3-2.4-4.4-2.1-3.6 0.6z"/>
				</g>
				<g id="&lt;Group&gt;">
					<path id="&lt;Path&gt;" class="s1" d="m318.3 195.6c-0.6-1.1-2.2-0.3-1.8 0.8 0.5 1.2 2.6 0.4 1.8-0.8z"/>
				</g>
			</g>
			<g id="&lt;Group&gt;" style="mix-blend-mode: screen">
				<g id="&lt;Group&gt;">
					<path id="&lt;Path&gt;" class="s1" d="m396.7 257.1c-0.3-1.5-2.4-1.1-2.5 0.3 0.1 1.6 2.9 1.6 2.5-0.3z"/>
				</g>
				<g id="&lt;Group&gt;">
					<path id="&lt;Path&gt;" class="s1" d="m390.6 247.3c2.1-0.6 1.1-3.7-0.9-3.5-2.3 0.5-1.7 4.5 0.9 3.5z"/>
				</g>
				<g id="&lt;Group&gt;">
					<path id="&lt;Path&gt;" class="s1" d="m383.6 236.4c0.1-2-2.8-2.1-3.2-0.4-0.4 2.1 3.2 2.9 3.2 0.4z"/>
				</g>
			</g>
			<g id="&lt;Group&gt;" style="mix-blend-mode: screen">
				<g id="&lt;Group&gt;">
					<path id="&lt;Path&gt;" class="s1" d="m532.4 284.9c0.9 0.7 1.9-0.6 1.2-1.3-0.8-0.9-2.3 0.5-1.2 1.3z"/>
				</g>
				<g id="&lt;Group&gt;">
					<path id="&lt;Path&gt;" class="s1" d="m533.9 262.8c-0.1 1.3 1.8 1.5 2.2 0.3 0.3-1.4-2.1-2-2.2-0.3z"/>
				</g>
				<g id="&lt;Group&gt;">
					<path id="&lt;Path&gt;" class="s1" d="m513.5 259.1c1.2 0.2 1.4-1.5 0.4-1.9-1.2-0.3-1.9 1.7-0.4 1.9z"/>
				</g>
			</g>
			<g id="&lt;Group&gt;" style="mix-blend-mode: screen">
				<g id="&lt;Group&gt;">
					<path id="&lt;Path&gt;" class="s1" d="m920.5 252.5c-1.3 1.1 0.3 3 1.7 2.2 1.5-1-0.2-3.7-1.7-2.2z"/>
				</g>
				<g id="&lt;Group&gt;">
					<path id="&lt;Path&gt;" class="s1" d="m920.6 218.9c1.7 0.3 2.1-2.3 0.5-2.9-1.9-0.4-2.8 2.8-0.5 2.9z"/>
				</g>
			</g>
			<g id="&lt;Group&gt;" style="mix-blend-mode: screen">
				<g id="&lt;Group&gt;">
					<path id="&lt;Path&gt;" class="s1" d="m930.6 227.3c1.4 0.6 2.3-1.4 1.1-2.2-1.4-0.8-2.8 1.6-1.1 2.2z"/>
				</g>
				<g id="&lt;Group&gt;">
					<path id="&lt;Path&gt;" class="s1" d="m923.9 223.3c2.2-1.5 0.1-4.8-2.2-3.8-2.5 1.3-0.4 5.8 2.2 3.8z"/>
				</g>
			</g>
			<g id="&lt;Group&gt;" style="mix-blend-mode: screen">
				<g id="&lt;Group&gt;">
					<path id="&lt;Path&gt;" class="s1" d="m698 150.3c0.1 1.5 2.2 1.4 2.4 0.1 0.1-1.6-2.6-1.9-2.4-0.1z"/>
				</g>
				<g id="&lt;Group&gt;">
					<path id="&lt;Path&gt;" class="s1" d="m679 133.7c0.3-2.3-3.1-2.7-3.8-0.7-0.6 2.4 3.6 3.7 3.8 0.7z"/>
				</g>
			</g>
			<g id="&lt;Group&gt;" style="mix-blend-mode: screen">
				<path id="&lt;Path&gt;" class="s1" d="m513.1 39.2c-1.9 1.1-0.3 4 1.7 3.4 2.3-1 0.8-5-1.7-3.4z"/>
			</g>
			<g id="&lt;Group&gt;" style="mix-blend-mode: screen">
				<g id="&lt;Group&gt;">
					<path id="&lt;Path&gt;" class="s1" d="m822.6 45.8c1.7 0.1 1.8-2.3 0.4-2.7-1.8-0.3-2.5 2.7-0.4 2.7z"/>
				</g>
				<g id="&lt;Group&gt;">
					<path id="&lt;Path&gt;" class="s1" d="m802.7 53.8c1-0.8-0.3-2.4-1.4-1.8-1.2 0.8 0.1 3 1.4 1.8z"/>
				</g>
			</g>
			<g id="&lt;Group&gt;" style="mix-blend-mode: screen">
				<path id="&lt;Path&gt;" class="s1" d="m756.3 35.1c2.4 0.1 2.6-3.4 0.4-4-2.6-0.3-3.4 4.1-0.4 4z"/>
			</g>
			<g id="&lt;Group&gt;" style="mix-blend-mode: screen">
				<path id="&lt;Path&gt;" class="s1" d="m814.5 19.7c1.5 0.3 1.9-1.8 0.7-2.4-1.5-0.5-2.5 2-0.7 2.4z"/>
			</g>
			<g id="&lt;Group&gt;" style="mix-blend-mode: screen">
				<g id="&lt;Group&gt;">
					<path id="&lt;Path&gt;" class="s1" d="m29 143.5c0.5-2.3-2.9-3.1-3.8-1.1-0.9 2.5 3.3 4.1 3.8 1.1z"/>
				</g>
				<g id="&lt;Group&gt;">
					<path id="&lt;Path&gt;" class="s1" d="m-0.7 131.7c0.9 1.2 2.6-0.1 2-1.3-0.8-1.3-3.2 0-2 1.3z"/>
				</g>
			</g>
			<g id="&lt;Group&gt;">
				<path id="&lt;Path&gt;" class="s2" d="m936.6 93.8q-0.2 2.2-0.6 4.3-0.2 1-0.5 2.1-1.1 4.4-3.2 8.3-0.7 1.3-1.5 2.5c-2.1 3.4-4.7 6.4-7.7 9q-1.3 1.1-2.7 2c-2.6 1.9-5.5 3.5-8.5 4.6q-2.6 1-5.3 1.6c-3.9 0.9-7.9 1.2-12.1 0.9-10.4-1-19.4-5.9-25.8-13.1-3.8-4.3-6.6-9.5-8.2-15.2q-0.2-0.6-0.3-1.1c-0.8-3.3-1.2-6.8-1.1-10.4q0-0.6 0-1.3 0.1-0.6 0.1-1.1 0.4-3.8 1.4-7.4 0.4-1.3 0.9-2.6c1.8-4.9 4.6-9.4 8.1-13.1q0.6-0.7 1.2-1.3c3-2.8 6.3-5.2 10-7q0.4-0.2 0.7-0.4c6-2.8 12.8-4.1 19.9-3.4 16.3 1.4 29.3 12.7 33.7 27.5q0.8 2.4 1.2 4.9 0.1 1 0.2 1.9 0.5 3.8 0.1 7.8z"/>
				<path id="&lt;Path&gt;" class="s3" d="m928.8 77.3q-0.4 1.2-1.1 2.3c-1.3 2.1-3.5 3.5-5.6 4.9-3.4 2.3-6.6 4.9-9.5 7.8-5.5 5.5-10 12.1-16.4 16.4-4.9 3.4-10.6 5.3-16.3 6.9-2.3 0.7-4.6 1.4-6.9 1.3-1.9 0-3.9-0.5-5.4-1.7-0.6-0.6-0.7-1-1-1.7-0.5-1-1.2-1.9-1.8-2.9-1.9-3-3.4-6.4-4.3-9.8q-0.2-0.6-0.3-1.1c-0.8-3.3-1.2-6.8-1.1-10.4q0-0.6 0-1.3 0.1-0.6 0.1-1.1 0.4-3.8 1.4-7.4 0.4-1.3 0.9-2.6c1.8-4.9 4.6-9.4 8.1-13.1q0.6-0.7 1.2-1.3c3-2.8 6.3-5.2 10-7q0.4-0.2 0.7-0.4c6-2.8 12.8-4.1 19.9-3.4 5.6 0.5 11.1 2.2 16 5q3.6 2.1 6.6 4.9c2 1.8 4.1 3.5 4.8 6.1 0.4 1.5 0.5 3 0.6 4.5 0 1.7-0.1 3.5-0.6 5.1z"/>
				<path id="&lt;Path&gt;" class="s4" d="m936.5 86q-2.2-1.3-4.4-2.5-5.3-3.1-11.1-5.3c-3.4-1.4-7-2.1-10.4-3.7-7-3.4-13.2-8.2-19.7-12.4q-5-3.4-10.1-6.6 0.4-0.2 0.7-0.4 5.4 3 11 5.6c7 3.4 14.3 5.9 21.3 9.4 1.6 0.8 3 1.8 4.4 2.9 1.5 1.1 3.2 2 4.8 3 3.3 2.2 6.6 4.3 10 6.3q1.6 0.9 3.3 1.8 0.1 1 0.2 1.9z"/>
				<path id="&lt;Path&gt;" class="s4" d="m936 98.1q-0.2 1-0.5 2.1-6.5-3.7-12.9-7.5c-6.8-3.9-13.9-7.7-21.1-10.7-3.5-1.4-7-2.5-10.4-4.1-1.5-0.7-2.9-1.6-4.3-2.5-1.7-1.1-3.4-2.6-5.3-3.3-1.6-0.5-2.9-0.7-4.4-1.7-1.7-1.1-3.1-2.6-4.6-3.9q-1.5-1.4-2.9-2.7 0.6-0.7 1.2-1.3 1.6 0.9 3.2 1.8c1.7 1 3.6 1.9 5.2 3.2 1.6 1.1 2.3 2.6 3.6 3.9 2.6 2.7 6.8 4 10.1 5.5 3.5 1.6 6.7 3.6 10.1 5.4 6.8 3.6 14 6.8 21 10q6.1 2.7 12 5.8z"/>
				<path id="&lt;Path&gt;" class="s4" d="m932.3 108.5q-0.7 1.3-1.5 2.5c-1.2-0.3-2.3-0.6-3.5-1.1q-2.6-1-5.2-2c-3-1.1-6.2-1.7-9-3.1-2.9-1.4-5.7-3.1-8.3-5-2.7-1.9-5.3-3.1-8.5-3.8-3-0.6-5.7-1.3-8.3-2.7-2.7-1.5-5.1-3.4-7.7-4.9-2.9-1.8-6.1-3.3-9.3-4.3-3.1-1-6-2.3-8.9-3.8q-0.8-0.4-1.5-0.8 0.4-1.3 0.9-2.6c1.4 0.7 2.7 1.4 4.1 2.1 3.3 1.5 6.6 2.9 10 4.1 5.8 2 10.9 5.5 16.8 7.6 1.5 0.5 3 0.8 4.6 1.1q-5-3.2-9.6-6.9c-0.4-0.3 0-0.9 0.4-0.7 6.2 3.7 12.8 6.9 19.3 10.1q4.8 2.4 9.6 4.7c3 1.5 6.4 2.6 9.1 4.7 0.4 0.4 0.3 1.2-0.2 1.4q0.5 0.3 1 0.5c1.5 0.7 3 1.2 4.4 2q0.7 0.4 1.3 0.9z"/>
				<path id="&lt;Path&gt;" class="s4" d="m923.1 120q-1.3 1.1-2.7 2c-2.9-1.1-5.8-2.4-8.4-4.1-3.3-2.1-6.4-3.2-10.3-4-3.3-0.6-6.1-1.9-9-3.6-6.2-3.6-12-7.8-18.1-11.7-5.1-3.2-10.4-6.2-15.5-9.3q0-0.6 0-1.3c5.4 2.5 10.4 5.8 15.4 8.9 6.2 3.9 12.7 7.4 19.2 10.8 3.1 1.7 6.3 3.8 9.7 4.8q0.5 0.1 1 0.2-1.3-0.8-2.6-1.6-8-5.5-16.1-10.8c-0.2-0.2 0.1-0.5 0.3-0.3 5.6 3.3 11.1 6.7 17 9.6 2.9 1.5 5.7 3.2 8.6 4.7 2.5 1.2 5.4 2 7.2 4q2.1 0.9 4.2 1.6 0.1 0 0.1 0.1z"/>
				<path id="&lt;Path&gt;" class="s4" d="m911.9 126.6q-2.6 1-5.3 1.6-3.2-1.2-6.5-2.6c-5.1-2.3-10.1-4.8-14.9-7.6-8.5-5.2-17-10.9-24.7-17.2q-0.2-0.6-0.3-1.1c8.2 6 16.6 11.6 25.9 16 5 2.3 10 4.7 15.1 6.9q4 1.6 8 3.1c0.8 0.3 1.8 0.6 2.7 0.9z"/>
			</g>
		</g>
	</g>
</svg>