<svg version="1.2" xmlns="http://www.w3.org/2000/svg" viewBox="0 0 1000 500" width="2160" height="1080">
	<title>1781-ai</title>
	<defs>
		<clipPath clipPathUnits="userSpaceOnUse" id="cp1">
			<path d="m1000 500h-1000v-500h1000z"/>
		</clipPath>
	</defs>
	<style>
		.s0 { fill: #76e366 } 
		.s1 { fill: #90e966 } 
		.s2 { fill: #5edd66 } 
	</style>
	<g id="_Artboards_">
	</g>
	<g id="layer 1">
		<g id="&lt;Clip Group&gt;" clip-path="url(#cp1)">
			<g id="&lt;Group&gt;">
				<g id="&lt;Group&gt;">
					<path id="&lt;Path&gt;" class="s0" d="m723 279.9q-0.5 5.1-1.5 10.1-0.5 2.5-1.2 5c-1.8 7-4.4 13.6-7.7 19.9q-1.6 3.1-3.4 6c-5.1 8.1-11.4 15.2-18.5 21.3q-3.1 2.7-6.4 5c-6.3 4.5-13.2 8.2-20.5 11q-6 2.4-12.4 3.8c-9.3 2.2-19.1 2.9-29.1 2-24.7-2.2-46.3-13.9-61.4-31.2-9.2-10.4-16-22.8-19.7-36.4q-0.4-1.3-0.7-2.6c-2-7.9-2.9-16.2-2.7-24.6q0-1.6 0.2-3.3 0-1.3 0.1-2.6 0.9-9.1 3.3-17.6 1-3.2 2.1-6.3c4.4-11.8 11-22.3 19.3-31.2q1.5-1.6 3.1-3.1c7-6.8 15-12.5 23.8-16.8q0.8-0.4 1.7-0.8c14.3-6.7 30.6-9.8 47.4-8.3 38.9 3.5 70.1 30.5 80.7 65.8q1.7 5.7 2.7 11.7 0.3 2.2 0.6 4.4c0.7 6.1 0.7 12.4 0.2 18.8z"/>
					<path id="&lt;Path&gt;" class="s1" d="m719.5 245q-0.2 0.3-0.4 0.5c-4.3 6.1-12.8-3.1-16-5.7-2.6-2.2-5.7-3.8-8.5-5.6-7.8-5.3-14.4-12.9-23.5-15.5 4.6 8.4 11.3 15.6 19.3 21 5.4 3.6 11.4 6.3 17 9.5 1.3 0.7 2.7 1.5 3.4 2.7 0.8 1.3 0.8 3.1-0.3 4.1-0.9 0.7-2.2 0.6-3.4 0.5-9.8-1.2-19.5-4.4-28.1-9.5-4.8-2.8-9.7-6.4-15.3-6.7-1.4 0-3.4 1.1-2.6 2.2q-6.4-3.3-12.8-6.6c-8.2-4.2-16.4-8.5-25.2-11.5 5.4 7.7 12.3 14.3 20.2 19.3 6.1 3.9 12.8 6.9 18.5 11.4 7.6 6 13.1 14.7 21.8 18.9 1.3 0.6 2.7 1.1 3.9 1.9 1.4 0.9 2.6 2.2 3.7 3.4q4.5 4.8 8.9 9.7c-16.5-4.6-32.1-11.7-48.1-17.7-4.9-1.8-9.8-3.5-14.7-5.2q-1.5 3.8-3 7.7c-6.9-2.8-13.1-6.5-20.2-8.8-7.5-2.4-15.3-4-23.2-4.8-1-0.1-2.1 0-2.6 0.8-0.8 1.3 1.1 2.6 2.6 3.2 4.6 2.1 7.8 6.3 11.9 9.3 3.3 2.4 7.1 3.9 10.9 5.4 11.5 4.7 22.7 10.1 33.5 16.1-8.1-3.6-17.5-3.3-26.1-5.7-9.4-2.6-18.1-8.6-28-8.8 3.9 4.9 8.9 8.9 13.8 12.9q11.1 8.9 22.1 17.8c5.8 4.6 11.7 9.3 16.2 15.2-23.5-8.2-44.4-22.2-66.4-33.9-3.8-2-7.7-4-12-4.8 8.6 13.1 17.4 26.3 29.5 36.1q-7.7-2.8-15.8-4.5 1 2.3 2 4.6c0.3 0.6 0.5 1.2 0.4 1.8-0.3 0.7-1 1.1-1.5 1.7-0.8 1.1-0.7 2.5-0.4 3.8 1.9 9.4 9.6 16.4 16.9 22.6-1.8-1.5-6.1-1.9-8.3-3.4-2.8-1.8-5.2-4.1-7.6-6.3-4.4-4.1-9.7-10.3-16.1-10.5-3.9-0.2-4.4 0.1-7.3-3.5q-3.9-4.8-7.2-10.1c-4.5-7.3-7.9-15.3-10.2-23.6q-0.4-1.3-0.7-2.6c-2-7.9-2.9-16.2-2.7-24.6q0-1.6 0.2-3.3 0-1.3 0.1-2.6 0.9-9.1 3.3-17.6 1-3.2 2.1-6.3c4.4-11.8 11-22.3 19.3-31.2q1.5-1.6 3.1-3.1c7-6.8 15-12.5 23.8-16.8q0.8-0.4 1.7-0.8c14.3-6.7 30.6-9.8 47.4-8.3 38.9 3.5 70.1 30.5 80.7 65.8z"/>
					<path id="&lt;Path&gt;" class="s2" d="m722.8 261.1q-5.3-3-10.6-6c-8.5-4.9-17.3-9-26.4-12.7-8.3-3.2-17-4.9-24.9-8.7-16.8-8.1-31.5-19.5-47-29.7-8-5.3-16.1-10.6-24.2-15.7q0.9-0.4 1.7-0.8 12.9 7 26.1 13.3c16.8 8.1 34.4 13.9 51 22.4 3.8 1.9 7.1 4.4 10.5 6.9 3.5 2.7 7.6 4.9 11.4 7.3 7.9 5 15.7 10.2 23.8 14.8q4 2.3 8 4.5 0.3 2.2 0.6 4.4z"/>
					<path id="&lt;Path&gt;" class="s2" d="m721.5 290q-0.5 2.5-1.2 5-15.5-8.8-30.9-17.8c-16.1-9.4-33.1-18.3-50.3-25.5-8.3-3.5-16.7-6.1-24.8-9.9-3.6-1.7-7-3.7-10.3-6-4-2.7-8-6.1-12.6-7.7-3.9-1.3-7-1.8-10.5-4.2-4-2.7-7.5-6.2-11.1-9.4q-3.5-3.1-7-6.3 1.5-1.6 3.1-3.1c2.5 1.4 5 2.8 7.5 4.3 4.2 2.4 8.6 4.6 12.5 7.5 3.7 2.7 5.4 6.2 8.5 9.5 6.1 6.4 16.3 9.3 24.3 13 8.2 3.8 15.9 8.6 23.9 12.9 16.3 8.6 33.5 16.3 50.3 23.9 9.7 4.3 19.2 8.9 28.6 13.8z"/>
					<path id="&lt;Path&gt;" class="s2" d="m712.6 314.9q-1.6 3.1-3.4 6c-2.9-0.7-5.7-1.5-8.6-2.6q-6.2-2.4-12.4-4.8c-7-2.8-14.7-4.1-21.3-7.3-7-3.5-13.6-7.5-19.9-12-6.5-4.6-12.6-7.6-20.4-9.1-7-1.5-13.5-3.2-19.8-6.6-6.5-3.4-12.1-8-18.4-11.7-6.8-4.2-14.5-7.9-22.2-10.2-7.4-2.3-14.3-5.4-21.2-9q-1.8-0.9-3.6-1.9 1-3.2 2.1-6.3c3.4 1.7 6.6 3.4 10 4.9 7.8 3.6 15.6 7.2 23.7 10 13.9 4.8 26.2 13.2 40.1 18 3.6 1.3 7.3 1.9 11.1 2.7-8-5.1-15.6-10.6-23.1-16.5-0.9-0.8 0.1-2.1 1.1-1.5 14.9 8.7 30.6 16.3 46 24 7.7 3.8 15.3 7.6 23 11.2 7.2 3.5 15.3 6.2 21.6 11.3 1.1 0.9 0.9 2.9-0.4 3.3q1.3 0.6 2.6 1.2c3.4 1.5 7.1 2.9 10.3 4.8q1.6 1 3.1 2.1z"/>
					<path id="&lt;Path&gt;" class="s2" d="m690.7 342.2q-3.1 2.7-6.4 5c-7-2.8-13.8-5.9-20.2-9.9-7.9-5.1-15.3-7.7-24.5-9.5-7.8-1.6-14.6-4.6-21.4-8.6-14.9-8.6-28.9-18.7-43.4-27.9-12.2-7.7-24.7-14.8-37-22.1q0-1.7 0.2-3.3c12.7 6 24.7 13.8 36.6 21.2 14.9 9.4 30.3 17.7 45.9 25.9 7.5 3.9 15.1 9 23.2 11.4q1.2 0.3 2.4 0.6-3.2-1.9-6.3-3.9c-12.7-8.7-25.5-17.3-38.3-25.8-0.6-0.4 0-1.2 0.6-0.8 13.4 7.9 26.6 16.2 40.5 23.1 7 3.5 13.7 7.5 20.6 11 5.9 3 12.9 4.9 17.3 9.8q5 2 10 3.8 0.1 0 0.2 0z"/>
					<path id="&lt;Path&gt;" class="s2" d="m663.8 358.2q-6 2.4-12.4 3.8-7.9-3-15.6-6.4c-12.2-5.3-24.1-11.3-35.5-18.1-20.4-12.3-40.7-25.9-59.1-41.1q-0.4-1.3-0.7-2.6c19.5 14.5 39.7 27.7 61.8 38.2 12 5.7 24 11.3 36.2 16.5q9.4 4 18.9 7.5c2.1 0.8 4.3 1.5 6.4 2.2z"/>
				</g>
				<path id="&lt;Path&gt;" class="s2" d="m722.7 282.3l-1.6 9.4c53.4 30.5 87.4 56.3 83.2 64.9-6 12.4-88.9-15.3-185.2-62-96.3-46.7-169.5-94.6-163.4-107 4.2-8.7 45.7 2.2 103 25.3l6.4-7c-145.3-66.6-257.5-106.9-264.1-93.3-7.8 16 133.2 100.4 315 188.5 181.7 88.1 335.3 146.5 343 130.5 6.6-13.6-94.3-76.6-236.3-149.3z"/>
				<path id="&lt;Path&gt;" class="s0" d="m504.4 185.4c-21.9-9.8-51.3-18.8-75.1-13.6-11 6.7 25.2 39.1 32.4 44-50.2-60 2.3-39.9 42.7-30.4z"/>
				<path id="&lt;Path&gt;" class="s0" d="m359 147.4c-4.1-4-8.1-8.3-10.3-13.5 25.2-8.7 85.5 20.1 110.4 31.5-23.7-7.4-47.7-13.7-72-18.6-2.3-0.5-5.1-0.8-6.6 1 6.4 13.2 17.5 23.4 29.1 32.1 2.4 1.8 9.4 5.2 9.7 8.2-22.3-8.2-43.5-24.2-60.3-40.7z"/>
			</g>
			<g id="&lt;Group&gt;">
			</g>
		</g>
	</g>
</svg>